<?xml version="1.0" standalone="no"?>
<!DOCTYPE svg PUBLIC "-//W3C//DTD SVG 20010904//EN"
 "http://www.w3.org/TR/2001/REC-SVG-20010904/DTD/svg10.dtd">
<svg version="1.0" xmlns="http://www.w3.org/2000/svg"
 width="229.000000pt" height="229.000000pt" viewBox="0 0 229.000000 229.000000"
 preserveAspectRatio="xMidYMid meet">
<metadata>
Created by potrace 1.11, written by Peter Selinger 2001-2013
</metadata>
<g transform="translate(0.000000,229.000000) scale(0.100000,-0.100000)"
fill="#000000" stroke="none">
<path d="M985 2279 c-33 -5 -100 -20 -149 -34 -612 -175 -966 -814 -790 -1424
110 -377 402 -670 789 -788 87 -26 98 -27 315 -27 218 -1 228 0 315 27 389
120 670 401 792 792 27 87 28 97 28 315 0 217 -1 228 -28 315 -119 388 -411
679 -788 789 -153 44 -331 57 -484 35z m335 -254 l0 -65 65 0 c51 0 65 -3 66
-15 1 -8 2 -21 3 -27 1 -8 28 -17 68 -23 l68 -10 -4 -88 c-2 -48 -7 -91 -10
-95 -4 -3 -79 -8 -166 -10 l-160 -4 0 -29 0 -29 134 0 134 0 4 -30 c3 -17 2
-32 0 -35 -3 -3 -50 -5 -104 -5 l-98 0 0 -29 c0 -27 3 -29 53 -35 28 -3 73 -6
100 -6 l47 0 0 35 c0 33 2 35 35 35 33 0 35 -2 35 -35 0 -32 2 -35 30 -35 l30
0 0 -195 0 -195 24 -6 c14 -3 30 -3 35 1 7 3 11 45 11 101 l0 94 35 0 c33 0
35 2 35 35 0 32 2 35 30 35 28 0 30 -3 30 -35 0 -32 -2 -35 -30 -35 l-29 0 -3
-97 -3 -98 -32 -3 c-29 -3 -33 -7 -33 -33 0 -27 -3 -29 -35 -29 -32 0 -35 2
-35 30 0 27 -3 30 -30 30 l-29 0 -3 -97 -3 -98 -32 -3 -33 -3 0 -65 0 -64 -34
0 c-32 0 -35 3 -38 32 -3 31 -4 31 -65 35 l-63 5 0 -71 0 -71 -35 0 c-32 0
-35 -2 -35 -30 0 -27 -3 -30 -30 -30 -28 0 -30 -3 -30 -35 l0 -35 -135 0 -135
0 0 35 c0 33 -2 35 -35 35 -33 0 -35 2 -35 35 0 32 -2 35 -30 35 l-30 0 0 95
0 95 -35 0 c-32 0 -35 -2 -35 -31 0 -28 -2 -30 -32 -27 -21 2 -33 9 -34 18 -1
8 -2 38 -2 67 -2 52 -2 52 -32 48 -28 -3 -30 -2 -30 31 0 32 -2 34 -35 34 -32
0 -35 2 -35 29 0 26 -4 30 -32 33 l-33 3 -5 100 c-4 86 -7 100 -22 101 -10 1
-22 2 -28 3 -5 0 -10 15 -10 31 0 28 2 30 40 30 22 0 40 5 40 10 0 6 5 10 11
10 5 0 7 -5 3 -11 -4 -8 0 -8 15 0 21 11 21 10 21 -64 l0 -76 32 3 c27 2 33 7
33 28 1 14 2 87 3 163 l2 137 30 0 c26 0 30 -3 30 -29 0 -27 3 -29 53 -35 28
-3 73 -6 100 -6 l47 0 0 35 0 35 -95 0 -95 0 0 29 c0 26 3 29 46 35 26 3 84 6
130 6 l84 0 0 30 0 29 -132 3 -133 3 -3 60 c-2 33 -1 93 3 133 l7 72 64 0 64
0 0 35 c0 32 2 35 30 35 28 0 30 -3 30 -35 0 -33 2 -35 35 -35 34 0 35 1 35
36 l0 36 98 -3 c53 -1 127 -2 165 -1 l67 2 0 30 c0 28 3 30 35 30 l35 0 0 -65z
m-820 -616 c0 -5 5 -7 11 -3 7 4 10 1 7 -6 -6 -20 -28 -24 -28 -6 0 19 -16 21
-23 4 -3 -8 -6 -6 -6 5 -1 11 6 17 19 17 11 0 20 -5 20 -11z m1085 -784 l7
-65 64 0 64 0 0 -29 c0 -26 4 -30 33 -33 28 -3 32 -7 35 -35 3 -32 2 -33 -32
-33 -34 0 -36 -2 -36 -35 0 -33 -2 -35 -35 -35 -33 0 -35 -2 -35 -35 0 -32 -2
-35 -30 -35 -27 0 -30 -3 -30 -30 0 -29 0 -29 -67 -32 l-68 -3 -3 -32 -3 -33
-130 0 -129 0 0 -30 0 -30 -100 0 -100 0 0 30 0 30 -70 0 -70 0 0 35 c0 32 -2
35 -30 35 l-30 0 0 100 0 100 63 -2 c34 -2 139 -2 232 0 l171 2 -1 28 c0 27 1
27 68 30 l67 3 0 34 c0 33 2 35 35 35 32 0 35 2 35 30 0 27 3 30 30 30 28 0
30 3 30 35 0 32 2 35 29 35 29 0 30 -1 36 -65z"/>
<path d="M865 1150 c-3 -6 1 -7 9 -4 18 7 21 14 7 14 -6 0 -13 -4 -16 -10z"/>
<path d="M889 1142 c-26 -17 -29 -22 -29 -42 0 -5 -15 -10 -34 -10 l-34 0 -4
-55 c-1 -30 -2 -60 0 -65 2 -6 33 -10 68 -10 l64 0 0 -36 c0 -34 1 -35 33 -32
28 3 32 7 35 36 3 31 2 32 -32 32 -34 0 -36 2 -36 35 0 32 3 35 29 35 26 0 29
3 35 46 11 82 10 84 -31 83 -21 0 -50 -8 -64 -17z m27 -27 c1 -8 -2 -15 -6
-15 -5 0 -8 9 -7 20 1 21 10 18 13 -5z m-29 -7 c-3 -8 -6 -5 -6 6 -1 11 2 17
5 13 3 -3 4 -12 1 -19z"/>
<path d="M1120 1122 c0 -37 1 -38 30 -34 28 4 30 2 30 -26 0 -30 0 -30 70 -37
44 -4 70 -11 69 -19 -5 -38 2 -46 37 -46 34 0 35 1 32 33 -3 28 -7 32 -35 35
-29 3 -33 7 -33 32 0 25 -4 29 -32 32 -29 3 -33 7 -36 36 l-3 32 -65 0 -64 0
0 -38z"/>
<path d="M630 1009 c0 -5 5 -7 10 -4 6 3 10 8 10 11 0 2 -4 4 -10 4 -5 0 -10
-5 -10 -11z"/>
<path d="M1280 997 c0 -8 7 -17 15 -21 8 -3 15 -3 15 0 0 3 -7 12 -15 20 -13
13 -15 13 -15 1z"/>
<path d="M1120 930 l0 -30 65 0 65 0 0 30 0 30 -65 0 -65 0 0 -30z"/>
</g>
</svg>
